<?xml version="1.0" encoding="utf-8"?>
<!-- Generator: Adobe Illustrator 21.1.0, SVG Export Plug-In . SVG Version: 6.00 Build 0)  -->
<svg version="1.1" id="Layer_1" xmlns="http://www.w3.org/2000/svg" xmlns:xlink="http://www.w3.org/1999/xlink" x="0px" y="0px"
	 viewBox="0 0 62.4 9.3" style="enable-background:new 0 0 62.4 9.3;" xml:space="preserve">
<style type="text/css">
	.st0{fill:none;}
	.st1{fill:#031F3B;}
	.st2{fill:#DD4694;}
</style>
<g>
	<g>
		<g>
			<g>
				<path class="st0" d="M6.1,1.7L4.7,2l1,5.6l1.4-0.2C8.7,7.1,9.7,5.6,9.4,4C9.1,2.5,7.7,1.5,6.1,1.7z"/>
			</g>
		</g>
	</g>
	<g>
		<g>
			<g>
				<path class="st1" d="M17.8,0.3l-4.9,0c-0.1,0-0.2,0.1-0.2,0.2l0,7.9c0,0.1,0.1,0.2,0.2,0.2l4.9,0c0.1,0,0.2-0.1,0.2-0.2l0-1
					c0-0.1-0.1-0.2-0.2-0.2l-3.6,0l0-2.1l3,0c0.1,0,0.2-0.1,0.2-0.2l0-1c0-0.1-0.1-0.2-0.2-0.2l-3,0l0-2l3.6,0
					c0.1,0,0.2-0.1,0.2-0.2l0-1C18.1,0.4,18,0.3,17.8,0.3z"/>
			</g>
		</g>
	</g>
	<g>
		<g>
			<g>
				<path class="st1" d="M23,0.3c0-0.1-0.1-0.1-0.2-0.1l-0.1,0c-0.1,0-0.2,0.1-0.2,0.1l-3.7,8.1c-0.1,0.2,0,0.3,0.2,0.3l1,0
					c0.2,0,0.3-0.1,0.3-0.2l0.6-1.3l3.6,0l0.6,1.3c0.1,0.2,0.2,0.2,0.3,0.2l1,0c0.2,0,0.3-0.2,0.2-0.3L23,0.3z M21.5,5.8l1.2-2.6
					l0,0l1.2,2.6L21.5,5.8z"/>
			</g>
		</g>
	</g>
	<g>
		<g>
			<g>
				<path class="st1" d="M34,2.8c0-1.4-1.2-2.6-2.6-2.6l-3.4,0c-0.1,0-0.2,0.1-0.2,0.2l0,7.9c0,0.1,0.1,0.2,0.2,0.2l1.1,0
					c0.1,0,0.2-0.1,0.2-0.2l0-3.1l1.3,0l1.6,3.2c0,0,0.1,0.1,0.2,0.1l1.3,0c0.2,0,0.3-0.2,0.2-0.3l-1.6-3C33.3,4.8,34,3.9,34,2.8z
					 M31.3,4.1l-2,0l0-2.4l2,0c0.6,0,1.2,0.5,1.2,1.2C32.5,3.5,31.9,4.1,31.3,4.1z"/>
			</g>
		</g>
	</g>
	<g>
		<g>
			<g>
				<path class="st1" d="M37.1,0.3l-1.1,0c-0.1,0-0.2,0.1-0.2,0.2l0,7.9c0,0.1,0.1,0.2,0.2,0.2l1.1,0c0.1,0,0.2-0.1,0.2-0.2l0-7.9
					C37.3,0.4,37.2,0.3,37.1,0.3z"/>
			</g>
		</g>
	</g>
	<g>
		<g>
			<g>
				<path class="st2" d="M51.5,5.1l-2.1,0l0-4.7c0-0.1-0.1-0.2-0.2-0.2l-0.8,0c-0.1,0-0.2,0.1-0.2,0.2l0,5.6c0,0.1,0.1,0.2,0.2,0.2
					l3.1,0c0.1,0,0.2-0.1,0.2-0.2l0-0.7C51.6,5.2,51.6,5.1,51.5,5.1z"/>
			</g>
		</g>
	</g>
	<g>
		<g>
			<g>
				<path class="st2" d="M55,0.2c0-0.1-0.1-0.1-0.1-0.1l-0.1,0c-0.1,0-0.1,0-0.1,0.1L52,5.9c-0.1,0.1,0,0.2,0.1,0.2l0.7,0
					c0.1,0,0.2-0.1,0.2-0.2L53.5,5L56,5l0.4,0.9c0.1,0.1,0.1,0.2,0.2,0.2l0.7,0c0.1,0,0.2-0.1,0.1-0.2L55,0.2z M53.9,4.1l0.8-1.9
					l0,0l0.8,1.9L53.9,4.1z"/>
			</g>
		</g>
	</g>
	<g>
		<g>
			<g>
				<path class="st2" d="M61.3,3.1c0.4-0.2,0.9-0.7,0.9-1.3c0-0.9-0.8-1.6-1.8-1.6l-1.9,0c-0.1,0-0.2,0.1-0.2,0.2l0,5.6
					c0,0.1,0.1,0.2,0.2,0.2l2,0c1,0,1.8-0.7,1.8-1.6C62.4,3.7,61.7,3.2,61.3,3.1z M59.4,1.2l0.9,0c0.4,0,0.7,0.3,0.7,0.7
					c0,0.4-0.3,0.8-0.7,0.8l-0.9,0L59.4,1.2z M60.5,5.1l-1,0l0-1.5l0.9,0c0.4,0,0.9,0.3,0.9,0.7C61.2,4.8,60.9,5.1,60.5,5.1z"/>
			</g>
		</g>
	</g>
	<g>
		<g>
			<g>
				<path class="st1" d="M1.6,0.3c0-0.1-0.1-0.2-0.2-0.2l-1.2,0C0.1,0.1,0,0.2,0,0.3l0,5.4l1.6,0L1.6,0.3z"/>
			</g>
		</g>
	</g>
	<g>
		<g>
			<g>
				<path class="st1" d="M0,8.5c0,0.1,0.1,0.2,0.2,0.2l1.2,0c0.1,0,0.2-0.1,0.2-0.2l0-1.5L0,7L0,8.5z"/>
			</g>
		</g>
	</g>
	<g>
		<g>
			<g>
				<path class="st1" d="M6,0.2L3.1,0.8C3,0.8,2.9,0.9,3,1l1.4,8.1c0,0.1,0.1,0.2,0.3,0.2l2.9-0.5c2.4-0.4,4-2.7,3.5-5
					C10.7,1.4,8.4-0.2,6,0.2z M7.1,7.3L5.7,7.6L4.7,2l1.4-0.2c1.6-0.3,3,0.7,3.2,2.3C9.7,5.6,8.7,7.1,7.1,7.3z"/>
			</g>
		</g>
	</g>
	<g>
		<g>
			<g>
				<path class="st1" d="M42.7,0.1c0-0.1-0.1-0.1-0.2-0.1l-0.1,0c-0.1,0-0.2,0.1-0.2,0.1l-3.9,8.4c-0.1,0.2,0,0.3,0.2,0.3l1.1,0
					c0.2,0,0.3-0.1,0.4-0.2l0.3-0.6l0.3-0.7l0.6-1.4l1.2-2.7l0,0l1.2,2.7l0.6,1.4l0.6,1.3c0.1,0.2,0.2,0.2,0.4,0.2l1.1,0
					c0.2,0,0.3-0.2,0.2-0.3L42.7,0.1z"/>
			</g>
		</g>
	</g>
	<g>
		<g>
			<g>
				<rect x="48.2" y="7.2" class="st2" width="14.2" height="1.6"/>
			</g>
		</g>
	</g>
</g>
</svg>
