<?xml version="1.0" encoding="utf-8"?>
<!-- Generator: Adobe Illustrator 21.1.0, SVG Export Plug-In . SVG Version: 6.00 Build 0)  -->
<svg version="1.1" id="Layer_1" xmlns="http://www.w3.org/2000/svg" xmlns:xlink="http://www.w3.org/1999/xlink" x="0px" y="0px"
	 viewBox="0 0 36 17" style="enable-background:new 0 0 36 17;" xml:space="preserve">
<style type="text/css">
	.st0{fill:#31647E;}
	.st1{fill:#4DAADF;}
	.st2{fill:#4890BC;}
	.st3{fill:#4258A6;}
	.st4{fill:#DD4694;}
	.st5{fill:#AF377A;}
</style>
<g>
	<g>
		<g>
			<g>
				<path class="st0" d="M8.6,9.9c0.3-0.3,0-0.8-0.7-1l-0.1,0C7.3,8.7,6.9,8.7,6.5,8.8L8.4,10C8.5,10,8.5,10,8.6,9.9z"/>
			</g>
		</g>
	</g>
	<g>
		<g>
			<g>
				<path class="st1" d="M8.4,10L6.5,8.8C6.3,8.9,6.2,9,6.1,9.1C5.9,9.4,5.9,10,5.9,10.5l1.9,0C8.1,10.4,8.3,10.2,8.4,10z"/>
			</g>
		</g>
	</g>
	<g>
		<g>
			<g>
				<path class="st2" d="M5.9,10.5c0,0.4,0.2,0.7,0.4,0.7c0.4,0,1-0.4,1.5-0.7L5.9,10.5z"/>
			</g>
		</g>
	</g>
	<g>
		<g>
			<g>
				<path class="st3" d="M18.7,8.8c0,0-0.9-0.9-1.8-1.5l-0.8,1.9c0.7,0.1,1.4,0.6,1.4,0.6c0.6,0.4,1.5,1.2,2,1.7l0.6,0.6l-1.1-3
					C18.9,9.1,18.8,8.9,18.7,8.8z"/>
			</g>
		</g>
	</g>
	<g>
		<g>
			<g>
				<path class="st4" d="M22.9,11.2c-0.4,0.6-1.1,0.7-1.7,0.2l-0.8-0.7c-0.4-0.4-1-1-1.5-1.5l1.1,3l1.5,1.4c0.5,0.5,1.3,0.4,1.7-0.1
					l2.4-3.2l-0.9-1.9L22.9,11.2z"/>
			</g>
		</g>
	</g>
	<g>
		<g>
			<g>
				<path class="st5" d="M28.3,4.6L22,2.5l0.9,1.9l2.4,0.9c0.7,0.3,0.9,0.9,0.6,1.5l-1,1.6l0.9,1.9L28.8,6C29.2,5.5,29,4.8,28.3,4.6
					z"/>
			</g>
		</g>
	</g>
	<g>
		<g>
			<g>
				<path class="st4" d="M18.7,1.4c-0.7-0.2-1.1,0.1-0.8,0.8l1.6,4.2c0.2,0.7,1,1.1,1.6,1s0.9-0.7,0.5-1.3l-0.9-1.6
					c-0.3-0.6-0.1-0.9,0.6-0.7l1.6,0.6L22,2.5L18.7,1.4z"/>
			</g>
		</g>
	</g>
	<g>
		<g>
			<g>
				<path class="st2" d="M6.6,13c0.1-0.7-0.3-1-1-0.7c0,0-1.1,0.5-1,1.1c0,0.1,0.1,0.2,0.1,0.3l1.8-0.5C6.6,13.1,6.6,13,6.6,13z"/>
			</g>
		</g>
	</g>
	<g>
		<g>
			<g>
				<path class="st2" d="M15.7,7.1c-2,0.1-3.4,2.7-4.7,4.4c-0.2,0.2-0.4,0.5-0.6,0.7l2.2-0.6c0.9-1.2,2-2.2,3.2-2.3
					c0.1,0,0.2,0,0.3,0l0.8-1.9C16.5,7.2,16.1,7,15.7,7.1z"/>
			</g>
		</g>
	</g>
	<g>
		<g>
			<g>
				<path class="st1" d="M6.9,14.1c-0.3-0.1-0.3-0.6-0.3-0.8l-1.8,0.5c0.3,0.7,0.8,1.2,1.5,1.5c0.4,0.2,3.3,1.2,5.9-3
					c0.1-0.2,0.3-0.5,0.5-0.7l-2.2,0.6C9.1,13.8,8.1,14.7,6.9,14.1z"/>
			</g>
		</g>
	</g>
</g>
</svg>
